<svg xmlns="http://www.w3.org/2000/svg" version="1.1" xmlns:xlink="http://www.w3.org/1999/xlink" width="512" height="512" x="0" y="0" viewBox="0 0 48 48" style="enable-background:new 0 0 512 512" xml:space="preserve" class=""><g><path fill="#dad7e5" d="M1 21h4v26H1z" opacity="1" data-original="#dad7e5" class=""></path><path fill="#edebf2" d="M5 21c0 24.83-.1 24 0 24a2 2 0 0 1-2-2V21z" opacity="1" data-original="#edebf2" class=""></path><path fill="#ba0005" d="M39 27c0 15.58.13 14.58-.36 15.64A4 4 0 0 1 35 45H5V23h30a4 4 0 0 1 4 4z" opacity="1" data-original="#374f68" class=""></path><path fill="#d70006" d="M39 27c0 15.58.13 14.58-.36 15.64A3.93 3.93 0 0 1 37 43H25A18 18 0 0 1 7 25v-2h28a4 4 0 0 1 4 4z" opacity="1" data-original="#425b72" class=""></path><path fill="#dad7e5" d="M39 29h4v10h-4z" opacity="1" data-original="#dad7e5" class=""></path><path fill="#edebf2" d="M43 29c0 9.57-.1 9 0 9a3 3 0 0 1-3-3v-6z" opacity="1" data-original="#edebf2" class=""></path><path fill="#dad7e5" d="M43 31h4v6h-4z" opacity="1" data-original="#dad7e5" class=""></path><path fill="#edebf2" d="M47 31v5a3 3 0 0 1-3-3v-2z" opacity="1" data-original="#edebf2" class=""></path><path fill="#7c7d7d" d="M30 23H18a4 4 0 0 1 1.17-2.83C20.67 18.7 22 19 26 19a4 4 0 0 1 4 4z" opacity="1" data-original="#7c7d7d" class=""></path><path fill="#919191" d="M29.87 22H20a4 4 0 0 1 1.17-2.83c.2-.2 0-.17 4.83-.17a4 4 0 0 1 3.87 3z" opacity="1" data-original="#919191" class=""></path><path fill="#ba0005" d="M23 15V7a1 1 0 0 1 2 0v8a1 1 0 0 1-2 0z" opacity="1" data-original="#374f68" class=""></path><path fill="#b80005" d="M26.81 2.16c-.48 2.9-.47 3.13-.72 3.56A2.36 2.36 0 0 1 21.67 5l-.48-2.87a1 1 0 0 1 1-1.16h3.64a1 1 0 0 1 .98 1.19z" opacity="1" data-original="#a87e6b" class=""></path><path fill="#d70006" d="M26.81 2.16c-.48 2.9-.47 3.13-.72 3.56A2.35 2.35 0 0 1 22.67 4c-.49-2.94-.49-2.87-.49-3h3.64a1 1 0 0 1 .99 1.16z" opacity="1" data-original="#be927c" class=""></path><path fill="#dad7e5" d="M31 32h-2.17L30 30l-2-2-2 1.17V27h-4v2.17L20 28l-2 2 1.17 2H17v4h2.17L18 38l2 2 2-1.17V41h4v-2.17L28 40l2-2-1.17-2H31z" opacity="1" data-original="#dad7e5" class=""></path><circle cx="24" cy="34" r="2" fill="#ba0005" opacity="1" data-original="#374f68" class=""></circle><path fill="#7c7d7d" d="M27 18v1h-6c0-1.21-.13-2.62 1.44-3.56A3 3 0 0 1 27 18z" opacity="1" data-original="#7c7d7d" class=""></path><path fill="#919191" d="M27 18h-5a4.23 4.23 0 0 1 .44-2.56A3 3 0 0 1 27 18z" opacity="1" data-original="#919191" class=""></path></g></svg>