<svg xmlns="http://www.w3.org/2000/svg" version="1.1" xmlns:xlink="http://www.w3.org/1999/xlink" width="512" height="512" x="0" y="0" viewBox="0 0 512 512" style="enable-background:new 0 0 512 512" xml:space="preserve" class=""><g><path fill="#aaaaaa" d="M182.468 341.254h158.361v117.46H182.468z" opacity="1" data-original="#aaaaaa"></path><g fill="#cbcbcb"><path d="M174.38 474.002c-8.442 0-15.286-6.844-15.286-15.285V357.114h30.571v101.602c.001 8.442-6.843 15.286-15.285 15.286zM228.794 474.002c-8.442 0-15.286-6.844-15.286-15.285V357.114h30.571v101.602c.001 8.442-6.843 15.286-15.285 15.286zM283.208 474.002c-8.442 0-15.286-6.844-15.286-15.285V357.114h30.571v101.602c.001 8.442-6.843 15.286-15.285 15.286zM337.622 474.002c-8.442 0-15.286-6.844-15.286-15.285V357.114h30.571v101.602c.001 8.442-6.843 15.286-15.285 15.286z" fill="#cbcbcb" opacity="1" data-original="#cbcbcb" class=""></path><path d="M308.071 296.528c0-43.302 35.229-78.53 78.53-78.53s78.53 35.228 78.53 78.53-35.229 78.53-78.53 78.53-78.53-35.229-78.53-78.53zm30.933 0c0 26.245 21.352 47.596 47.596 47.596s47.596-21.352 47.596-47.596c0-26.245-21.352-47.596-47.596-47.596s-47.596 21.351-47.596 47.596z" fill="#cbcbcb" opacity="1" data-original="#cbcbcb" class=""></path></g><path fill="#aaaaaa" d="M392.082 343.799c1.8.207 3.627.325 5.481.325 26.245 0 47.596-21.352 47.596-47.596 0-26.245-21.352-47.596-47.596-47.596-1.855 0-3.681.118-5.481.325 23.671 2.728 42.115 22.881 42.115 47.271s-18.444 44.543-42.115 47.271z" opacity="1" data-original="#aaaaaa"></path><path fill="#cbcbcb" d="M377.602 285.5 264.579 172.478l84.337-84.337L461.94 201.163z" opacity="1" data-original="#cbcbcb" class=""></path><path fill="#aaaaaa" d="m282.274 200.169-22.706-22.706 84.338-84.337 22.705 22.705z" opacity="1" data-original="#aaaaaa"></path><path fill="#c90006" d="m506.067 178.852-12.929 17.544-9.282 12.568-14.587 19.79L321.252 80.727l19.779-14.577 12.579-9.282 17.544-12.929c12.105-8.932 28.928-7.665 39.559 2.967l92.376 92.377c10.643 10.641 11.9 27.454 2.978 39.569z" opacity="1" data-original="#da4a54" class=""></path><path fill="#d70006" d="M359.311 118.789 321.252 80.73l49.896-36.8c12.116-8.919 28.923-7.661 39.564 2.98l38.058 38.058c-10.631-10.641-27.448-11.899-39.564-2.97z" opacity="1" data-original="#c32430" class=""></path><path fill="#cbcbcb" d="M125.402 375.058c-43.301 0-78.53-35.228-78.53-78.53s35.229-78.53 78.53-78.53 78.53 35.228 78.53 78.53-35.229 78.53-78.53 78.53zm0-126.127c-26.245 0-47.596 21.352-47.596 47.596 0 26.245 21.352 47.596 47.596 47.596s47.596-21.352 47.596-47.596-21.352-47.596-47.596-47.596z" opacity="1" data-original="#cbcbcb" class=""></path><path fill="#aaaaaa" d="M59.893 296.528c0-41.104 31.75-74.946 72.02-78.263a80.007 80.007 0 0 0-6.511-.268c-43.299 0-78.531 35.232-78.531 78.531s35.232 78.531 78.531 78.531c2.194 0 4.368-.093 6.511-.268-40.269-3.317-72.02-37.159-72.02-78.263z" opacity="1" data-original="#aaaaaa"></path><path fill="#cbcbcb" d="M50.046 201.1 163.07 88.077l84.338 84.337-113.023 113.024z" opacity="1" data-original="#cbcbcb" class=""></path><path fill="#aaaaaa" d="m50.04 201.097 22.705-22.705 84.337 84.337-22.705 22.706z" opacity="1" data-original="#aaaaaa"></path><path fill="#e2dfe2" d="M278.184 158.777h-44.366l-113.04 113.04 38.317 118.973h193.813l38.316-118.973" opacity="1" data-original="#e2dfe2" class=""></path><path fill="#818181" d="M131.358 215.784c-5.853 5.853-15.342 5.853-21.195 0L82.93 188.551l21.195-21.195 27.233 27.233c5.852 5.852 5.852 15.342 0 21.195zM177.785 169.356c-5.853 5.853-15.342 5.853-21.195 0l-27.233-27.233 21.195-21.195 27.233 27.233c5.853 5.853 5.853 15.342 0 21.195z" opacity="1" data-original="#818181" class=""></path><path fill="#c90006" d="M190.749 80.727 42.732 228.754l-14.587-19.79-9.282-12.568-12.929-17.544c-8.921-12.115-7.665-28.928 2.977-39.569l92.376-92.377c10.642-10.631 27.454-11.899 39.559-2.967l17.544 12.929 12.579 9.272z" opacity="1" data-original="#da4a54" class=""></path><path fill="#d70006" d="m80.79 190.691-38.058 38.058-36.8-49.896c-8.919-12.116-7.661-28.923 2.98-39.564l38.058-38.058c-10.642 10.631-11.9 27.448-2.97 39.564z" opacity="1" data-original="#c32430" class=""></path><path fill="#818181" d="M380.645 215.784c5.853 5.853 15.342 5.853 21.195 0l27.233-27.233-21.195-21.195-27.233 27.233c-5.853 5.852-5.853 15.342 0 21.195zM334.218 169.356c5.853 5.853 15.342 5.853 21.195 0l27.233-27.233-21.195-21.195-27.233 27.233c-5.853 5.853-5.853 15.342 0 21.195z" opacity="1" data-original="#818181" class=""></path><path fill="#d70006" d="M170.969 66.139 28.145 208.964l-9.282-12.568L158.391 56.868zM493.138 196.396l-9.282 12.568L341.032 66.15l12.578-9.282z" opacity="1" data-original="#c32430" class=""></path><circle cx="256.001" cy="257.946" r="36.003" fill="#818181" opacity="1" data-original="#818181" class=""></circle><circle cx="352.908" cy="342.295" r="48.495" fill="#818181" opacity="1" data-original="#818181" class=""></circle><circle cx="173.553" cy="368.93" r="58.157" fill="#818181" opacity="1" data-original="#818181" class=""></circle><circle cx="173.553" cy="368.93" r="15.594" fill="#e2dfe2" opacity="1" data-original="#e2dfe2" class=""></circle><circle cx="352.908" cy="342.295" r="15.594" fill="#e2dfe2" opacity="1" data-original="#e2dfe2" class=""></circle><path fill="#544f57" d="M127.931 340.589a7.727 7.727 0 0 1-5.403-13.25l103.919-101.615a7.727 7.727 0 0 1 10.804 11.048L133.333 338.386a7.702 7.702 0 0 1-5.402 2.203zM372.778 305.79a7.69 7.69 0 0 1-4.509-1.457l-92.197-66.409a7.727 7.727 0 0 1 9.031-12.539l92.197 66.409a7.727 7.727 0 0 1-4.522 13.996zM213.509 418.916a7.726 7.726 0 0 1-5.411-13.242l103.53-101.532a7.726 7.726 0 0 1 10.82 11.032l-103.53 101.532a7.7 7.7 0 0 1-5.409 2.21z" opacity="1" data-original="#544f57"></path><path fill="#736e6e" d="M256.001 301.675c-24.113 0-43.729-19.617-43.729-43.73 0-24.112 19.617-43.729 43.729-43.729s43.73 19.617 43.73 43.729c0 24.113-19.617 43.73-43.73 43.73zm0-72.006c-15.592 0-28.277 12.685-28.277 28.277s12.685 28.277 28.277 28.277 28.277-12.685 28.277-28.277-12.685-28.277-28.277-28.277zM352.908 398.516c-31.001 0-56.221-25.221-56.221-56.221s25.221-56.221 56.221-56.221 56.221 25.221 56.221 56.221-25.221 56.221-56.221 56.221zm0-96.99c-22.48 0-40.769 18.289-40.769 40.769s18.289 40.769 40.769 40.769 40.769-18.289 40.769-40.769-18.289-40.769-40.769-40.769zM173.553 434.814c-36.328 0-65.883-29.555-65.883-65.883s29.555-65.883 65.883-65.883 65.883 29.555 65.883 65.883c0 36.327-29.555 65.883-65.883 65.883zm0-116.314c-27.807 0-50.431 22.623-50.431 50.43 0 27.808 22.623 50.431 50.431 50.431s50.431-22.623 50.431-50.431c-.001-27.807-22.624-50.43-50.431-50.43z" opacity="1" data-original="#736e6e" class=""></path></g></svg>