<svg xmlns="http://www.w3.org/2000/svg" version="1.1" xmlns:xlink="http://www.w3.org/1999/xlink" width="512" height="512" x="0" y="0" viewBox="0 0 464.125 464.125" style="enable-background:new 0 0 512 512" xml:space="preserve" class=""><g><path d="M32.022 144.125h96c17.673 0 32 14.327 32 32v256c0 17.673-14.327 32-32 32h-96c-17.673 0-32-14.327-32-32v-256c0-17.673 14.327-32 32-32z" style="" fill="#3b3b3b" data-original="#696969" class="" opacity="1"></path><path d="M128.022 400.125h-96c-17.673 0-32-14.327-32-32v64c0 17.673 14.327 32 32 32h96c17.673 0 32-14.327 32-32v-64c0 17.673-14.327 32-32 32z" style="" fill="#303032" data-original="#5e5e5f" class="" opacity="1"></path><path d="M24.022 144.125h16v320h-16v-320zM56.022 144.125h16v320h-16v-320zM88.022 144.125h16v320h-16v-320zM120.022 144.125h16v320h-16v-320z" style="" fill="#282828" data-original="#535354" class="" opacity="1"></path><path d="M160.022 248.125h32v112h-32v-112z" style="" fill="#4d4d4d" data-original="#4398d1" class="" opacity="1"></path><path d="m404.822 48.725-2.112 3.904-11.488 21.096 28.128 15.256 13.6-24.992c17.667-.467 31.61-15.168 31.142-32.835S448.924-.456 431.257.012c-17.667.467-31.61 15.168-31.142 32.835a31.986 31.986 0 0 0 4.707 15.878z" style="" fill="#d70006" data-original="#de4c3c" class="" opacity="1"></path><path d="m421.177 35.356 7.627-14.065 14.065 7.627-7.627 14.065-14.065-7.627z" style="" fill="#a70206" data-original="#bf362c" class="" opacity="1"></path><path d="m290.043 209.945 70.318 38.148-15.259 28.127-70.318-38.148 15.259-28.127zM433.438 96.613l-56.256-30.52-16.112 29.696 63.488 17.2 8.88-16.376z" style="" fill="#d70006" data-original="#de4c3c" class="" opacity="1"></path><path d="m328.942 188.581-17.808 32.808 28.128 15.264 20.344-37.504-30.664-10.568z" style="" fill="#d70006" data-original="#de4c3c" class="" opacity="1"></path><path d="M192.022 280.125h224v48h-224v-48z" style="" fill="#4d4d4d" data-original="#4398d1" class="" opacity="1"></path><path d="M335.222 314.597a31.872 31.872 0 0 0-.92-31.856l1.392-2.616h-54.072c-10.731 13.679-8.34 33.467 5.339 44.198a31.42 31.42 0 0 0 4.877 3.146c.512.272 1.056.408 1.6.656h27.488a31.727 31.727 0 0 0 14.296-13.528z" style="" fill="#4d4d4d" data-original="#3e8cc7" class="" opacity="1"></path><path d="m315.678 280.125.696-1.28 7.632-14.064-28.128-15.264-9.752 17.968a32.71 32.71 0 0 0-10.152 1.936 31.564 31.564 0 0 0-14.4 10.704 30.118 30.118 0 0 0-2.648 3.96c-8.426 15.533-2.667 34.955 12.864 43.384.512.272 1.056.408 1.6.656 15.833 7.63 34.854.98 42.484-14.854a31.824 31.824 0 0 0-1.588-30.53l1.392-2.616z" style="" fill="#d70006" data-original="#de4c3c" class="" opacity="1"></path><path d="M416.022 248.125h48v112h-48v-112z" style="" fill="#4d4d4d" data-original="#4398d1" class="" opacity="1"></path><path d="M384.022 280.125h32v48h-32v-48z" style="" fill="#4d4d4d" data-original="#3e8cc7" class="" opacity="1"></path><path d="M279.046 291.341h16v16h-16v-16z" style="" fill="#a70206" data-original="#bf362c" class="" opacity="1"></path><path d="M395.59 212.605a8.057 8.057 0 0 1-2.112-.288l-97.32-26.592a8 8 0 0 1 4.216-15.432l97.32 26.584a8 8 0 0 1-2.104 15.728zM411.678 183.805a8.276 8.276 0 0 1-2.048-.264l-98.144-25.928a8 8 0 0 1 4.08-15.472l98.152 25.928a8.001 8.001 0 0 1-2.04 15.736zM427.766 155.005a7.7 7.7 0 0 1-1.976-.248l-98.976-25.256a8 8 0 0 1 3.952-15.504l98.976 25.264a8 8 0 0 1-1.976 15.744zM443.854 126.213a7.836 7.836 0 0 1-2.088-.28l-100.384-27.2a8.001 8.001 0 1 1 4.176-15.448l100.384 27.24a8 8 0 0 1-2.088 15.728v-.04z" style="" fill="#4d4d4d" data-original="#4398d1" class="" opacity="1"></path></g></svg>