<svg xmlns="http://www.w3.org/2000/svg" version="1.1" xmlns:xlink="http://www.w3.org/1999/xlink" width="512" height="512" x="0" y="0" viewBox="0 0 512 512" style="enable-background:new 0 0 512 512" xml:space="preserve" class=""><g><path fill-rule="evenodd" d="M56.871 331.34A194.094 194.094 0 1 1 331.365 56.854 194.094 194.094 0 1 1 56.871 331.34zm444.164 169.67a37.737 37.737 0 0 0 0-53.141L374.417 321.251a224.2 224.2 0 0 1-24.332 28.809 221.808 221.808 0 0 1-28.817 24.332L447.886 501.01a37.625 37.625 0 0 0 53.149 0zm-200.7-405.5C251.456 99.181 220.59 86.561 206 56.917a13.245 13.245 0 0 0-23.765 0C167.646 86.561 136.787 99.181 87.9 95.508a13.255 13.255 0 0 0-14.054 11.027c-8.623 51.746-.56 102.026 23.338 145.409 21.4 38.866 53.961 69.292 91.677 85.639a13.177 13.177 0 0 0 10.523 0c37.716-16.347 70.277-46.773 91.677-85.639 23.9-43.383 31.962-93.663 23.339-145.409a13.231 13.231 0 0 0-14.062-11.027zM194.114 310.871c55.521-26.808 106.479-95.208 95.8-188.343q-2.589.07-5.132.07c-40.86 0-71.214-11.894-90.667-35.469-20.257 24.561-52.361 36.423-95.791 35.4-10.682 93.134 40.276 161.534 95.79 188.342zm56.372-141.847a13.238 13.238 0 1 0-20.832-16.34l-43.446 55.388-29.227-26.09a13.236 13.236 0 1 0-17.632 19.745L179.1 237.22a13.271 13.271 0 0 0 8.82 3.358 11.374 11.374 0 0 0 1.167-.048 13.223 13.223 0 0 0 9.246-5.02z" fill="#ffffff" opacity="1" data-original="#000000"></path></g></svg>