<svg xmlns="http://www.w3.org/2000/svg" version="1.1" xmlns:xlink="http://www.w3.org/1999/xlink" width="512" height="512" x="0" y="0" viewBox="0 0 64 64" style="enable-background:new 0 0 512 512" xml:space="preserve" class=""><g><path d="m10.9 12.1.8.1c-.4.5-.6 1.2-.5 1.9l.6 9.7c.1.9.6 1.7 1.3 2.1v1.6c0 1.4 1.1 2.5 2.5 2.5h4.2c1.4 0 2.5-1.1 2.5-2.5v-1.2h16.8v1.2c0 1.4 1.1 2.5 2.5 2.5h4.2c1.4 0 2.5-1.1 2.5-2.5v-1.8c.6-.5 1-1.1 1-1.9l.6-9.7c.1-.7-.2-1.3-.5-1.9l.9-.1c1.6-.2 2.9-1.6 2.8-3.4-.2-1.5-1.5-2.6-3-2.7h-2.5c-.8 0-1.6.3-2.2.9-.7-1.6-1.6-3.1-2.4-4.4C42.1 1 40.4 0 38.7 0H22.6c-1.8 0-3.4.9-4.4 2.5s-1.7 2.9-2.4 4.4c-.5-.6-1.3-.9-2.1-.9l-2.5.1c-1.7 0-3 1.4-3 3 0 1.5 1.2 2.9 2.7 3zm4.8-.9h29.8c.3.4.6.7.9 1-3.8.7-6.2 2.6-7.6 4.4-.7.9-1.7 1.3-2.7 1.3H25c-1 0-2-.5-2.7-1.3-1.4-1.7-3.8-3.7-7.6-4.4.4-.3.7-.7 1-1zm31 13.2H14.5c-.4 0-.8-.3-.8-.7l-.3-5c.3 0 4.3 2.4 7.2-1.1 1.1 1.3 2.4 2.3 4.4 2.3h11.2c1.9 0 3.2-.9 4.4-2.3 1.4 1.7 3.8 2.4 5.9 1.6l1.2-.5-.3 5c.1.4-.3.7-.7.7zm-27.5-8.2c-2 2.7-5.2.5-5.9.4l-.1-2.6c2.7.1 4.6 1.1 6 2.2zM48 14l-.1 2.6c-.7.1-3.9 2.3-5.9-.4 1.4-1.1 3.3-2.1 6-2.2 0-.1 0 0 0 0zM20.4 27.6c0 .3-.3.6-.6.6h-4.2c-.3 0-.6-.3-.6-.6v-1.2h5.3v1.2zm25.5.5h-4.2c-.3 0-.6-.3-.6-.6v-1.2h5.3v1.2c0 .4-.2.6-.5.6zM47.6 8h2.5c.6 0 1.1.4 1.1.9 0 .1.1 1.1-1 1.2l-2.6.3c-1.2-1.2-.9-1.4-.9-1.5-.2-.5.3-.9.9-.9zM19.9 3.5c.5-.9 1.6-1.5 2.7-1.5h16.1c1.1 0 2.1.6 2.7 1.5 2.2 3.7 2.1 3.8 3 5.8H16.9c.9-2.1.7-2.1 3-5.8zM11.2 8h2.5c1.2-.1.9 1.2 1 1.3-.3.5-.6.9-1 1.2l-2.6-.3c-.6-.1-1.1-.5-1.1-1.1.2-.1.2-1 1.2-1.1z" fill="#36454f" opacity="1" data-original="#000000" class=""></path><path d="M62.6 28.2c-1.9-2.7-5.8-2.6-7.6-.2L41.6 42.2c-.9-1.9-2.8-3.2-4.9-3.2H24.8c-1.1 0-2.1-.2-3.1-.7-5-2.4-11-1.7-15.3 1.9L.9 44.8c-.4.3-.5 1-.1 1.4.3.4 1 .5 1.4.1l5.5-4.6c3.7-3.1 8.9-3.7 13.2-1.6 1.2.6 2.6.9 4 .9h11.9c1.8 0 3.5 1.4 3.5 3.5 0 1.9-1.4 3.4-3.3 3.4H24.1c-.5 0-1 .4-1 1s.4 1 1 1h12.7c2.8 0 5.2-2.2 5.2-5.3l14.5-15.3c1.1-1.5 3.4-1.5 4.5.1.7 1 .7 2.4-.1 3.4l-11.4 15C41.8 58 28.6 61 17.3 57.5c-3.1-1-8-.3-10.9 1.4L1 62.2c-.5.3-.6.9-.3 1.3.2.5.8.6 1.3.3l5.6-3.3c2.4-1.5 6.7-2 9.3-1.2 12 3.7 26 .5 34.3-10.4l11.4-15c1.2-1.7 1.2-4 0-5.7z" fill="#36454f" opacity="1" data-original="#000000" class=""></path></g></svg>