<svg xmlns="http://www.w3.org/2000/svg" version="1.1" xmlns:xlink="http://www.w3.org/1999/xlink" width="512" height="512" x="0" y="0" viewBox="0 0 512 512" style="enable-background:new 0 0 512 512" xml:space="preserve"><g><path d="M221.33 122.27H53.24c-4.08 0-7.77 1.59-10.43 4.11-2.61 2.52-4.22 5.95-4.22 9.72v196.72l22.73 21.37c1.11.91 1.81 2.3 1.81 3.86v89.09c0 4 1.7 7.63 4.48 10.26 2.78 2.69 6.66 4.34 10.97 4.34h117.41c4.31 0 8.19-1.64 11-4.34 2.75-2.64 4.45-6.26 4.45-10.26v-89.23h.03c0-1.33.51-2.66 1.56-3.63l22.96-21.46V136.1c0-3.77-1.62-7.2-4.22-9.72-2.67-2.53-6.36-4.11-10.44-4.11zM111.6 112.26h51.36v-13.1c0-1.76-.71-3.34-1.87-4.51a6.348 6.348 0 0 0-4.51-1.87h-38.61c-1.76 0-3.34.71-4.51 1.87-1.13 1.16-1.87 2.75-1.87 4.51v13.1zm87.82 37.42H75.15c-1.93 0-3.71.79-5.02 2.1a7.107 7.107 0 0 0-2.1 5.02v138.78c0 1.96.82 3.71 2.1 5.02 1.3 1.28 3.09 2.1 5.02 2.1h124.27c1.93 0 3.71-.82 5.02-2.1 1.28-1.3 2.1-3.06 2.1-5.02V156.79c0-1.96-.82-3.74-2.1-5.02a7.121 7.121 0 0 0-5.02-2.09zM75.15 139.67h124.27c4.71 0 8.99 1.93 12.08 5.02 3.12 3.12 5.02 7.4 5.02 12.1v138.78c0 4.71-1.9 8.99-5.02 12.08a16.937 16.937 0 0 1-12.08 5.02H75.15c-4.71 0-8.99-1.9-12.08-5.02a16.937 16.937 0 0 1-5.02-12.08V156.79c0-4.71 1.9-8.99 5.02-12.1 3.09-3.09 7.37-5.02 12.08-5.02zm116.93 251.07v-22.17h-19.9v22.17zm10-27.19v32.17c0 2.75-2.24 4.99-5.02 4.99h-29.88c-2.78 0-5.02-2.24-5.02-4.99v-32.17c0-2.75 2.24-4.99 5.02-4.99h29.88c2.78 0 5.02 2.24 5.02 4.99zm-119.59 5.5v22.17h19.9v-22.17zm-10.01 27.16v-32.17c0-2.75 2.24-4.99 5.02-4.99h29.88c2.78 0 5.02 2.24 5.02 4.99v32.17a5.01 5.01 0 0 1-5.02 5.02H77.5a5.01 5.01 0 0 1-5.02-5.02zm78.38-64.43h-27.72v17.12h27.72zm-32.74-10.01h37.76c2.75 0 4.99 2.24 4.99 5.02v27.1c0 2.75-2.24 4.99-4.99 4.99h-37.76c-2.75 0-4.99-2.24-4.99-4.99v-27.1c0-2.78 2.24-5.02 4.99-5.02zm32.74 91.73h-27.72v17.09h27.72zm-32.74-10.01h37.76c2.75 0 4.99 2.24 4.99 4.99v27.13c0 2.75-2.24 4.99-4.99 4.99h-37.76c-2.75 0-4.99-2.24-4.99-4.99v-27.13c0-2.75 2.24-4.99 4.99-4.99zm24.24-27.64a7.546 7.546 0 0 0-5.33-2.21c-2.1 0-3.97.85-5.33 2.21s-2.21 3.26-2.21 5.33c0 2.1.85 3.97 2.21 5.33s3.23 2.21 5.33 2.21c2.07 0 3.97-.85 5.33-2.21s2.21-3.23 2.21-5.33c0-2.07-.85-3.96-2.21-5.33zm-5.33-12.21c4.85 0 9.24 1.96 12.42 5.13s5.13 7.57 5.13 12.42-1.96 9.24-5.13 12.42-7.57 5.13-12.42 5.13-9.24-1.96-12.42-5.13-5.13-7.57-5.13-12.42 1.96-9.24 5.13-12.42 7.57-5.13 12.42-5.13zm266.91-35.72-52.55 28.15 16.81 31.35c.51.99.71 2.15.48 3.32l-3.54 17.52 34.95 65.2 74.64-40.03-34.92-65.14-16.44-6.6a5.117 5.117 0 0 1-2.55-2.3zm-42.27 11.34 16.21-8.67c-26.53-18.48-20.69-62.87-14.12-112.65 3.12-23.44 6.38-48.16 6.38-71.66 0-59.64-21.91-111.09-126.2-111.09-11.37 0-22.48 1.11-33.08 3.17-10.8 2.13-21.06 5.24-30.44 9.27-9.67 4.14-18.48 9.21-26.11 15.14-7.37 5.7-13.66 12.22-18.54 19.36-.17.23-.28.45-.43.65h21.23c.17 0 .34 0 .51.03 3.57-3.66 7.68-7.03 12.25-10.09 5.3-3.57 11.25-6.77 17.72-9.55 8.36-3.57 17.55-6.35 27.24-8.22 9.47-1.84 19.45-2.83 29.65-2.83 89.49 0 109.33 42.38 109.33 96.49 0 20.78-3.06 43.31-6.09 65.76-6.77 49.66-13.45 98.92 14.49 124.89z" fill="#ffffff" opacity="1" data-original="#000000"></path></g></svg>