<svg xmlns="http://www.w3.org/2000/svg" version="1.1" xmlns:xlink="http://www.w3.org/1999/xlink" width="512" height="512" x="0" y="0" viewBox="0 0 512 512" style="enable-background:new 0 0 512 512" xml:space="preserve" class=""><g><path d="M351.54 403.488c-11.079-6.794-22.388-13.505-33.79-20.144l-.036-.021c-19.995-11.643-40.278-23.047-60.202-34.22v-11.058a128.408 128.408 0 0 0 2.742-3.433c10.401-13.545 18.222-29.209 23.156-46.018 17.503-6.294 30.689-24.538 30.689-43.374 0-9.73-3.568-18.32-10.048-24.19a28.563 28.563 0 0 0-10.17-5.925c6.912-17.068 10.797-34.291 10.797-49.671 0-57.871-49.531-104.953-110.413-104.953S83.851 107.564 83.851 165.435c0 15.373 3.889 32.595 10.808 49.666a28.552 28.552 0 0 0-10.403 6.155c-6.319 5.859-9.798 14.369-9.798 23.964 0 18.834 13.184 37.077 30.685 43.372 4.931 16.81 12.749 32.475 23.145 46.019.959 1.25 1.937 2.465 2.926 3.659v10.721c-31.487 17.68-63.952 35.939-94.191 54.493-11.685 7.149-18.387 19.103-18.387 32.799v64.338a6.974 6.974 0 0 0 13.948 0v-64.338c0-8.856 4.161-16.279 11.725-20.905 7.497-4.6 15.141-9.186 22.878-13.753v98.996a6.974 6.974 0 0 0 13.948 0V393.468a3208.803 3208.803 0 0 1 28.406-16.262v78.628a6.974 6.974 0 0 0 6.974 6.974h155.527a6.974 6.974 0 0 0 6.974-6.974v-78.62a3115.368 3115.368 0 0 1 28.406 16.255v107.152c0 3.852 3.122 6.974 6.974 6.974s6.974-3.122 6.974-6.974v-98.99c7.71 4.552 15.355 9.135 22.884 13.752 7.557 4.622 11.718 12.045 11.718 20.9v64.338c0 3.852 3.122 6.974 6.974 6.974s6.974-3.122 6.974-6.974v-64.338c.002-13.696-6.701-25.651-18.38-32.795zm-206.378-50.492v-.524c15.14 12.858 32.264 19.939 49.102 19.939 16.909 0 34.109-7.14 49.3-20.1v.876c0 27.137-22.078 49.215-49.215 49.215-27.122 0-49.187-22.078-49.187-49.215zm-41.723-154.777c24.645-16.324 56.676-25.272 90.825-25.272 34.16 0 66.194 8.944 90.838 25.262-6.033 19.072-16.578 38.884-29.976 55.528-18.074-11.375-38.981-17.357-60.862-17.357-21.865 0-42.762 5.982-60.834 17.357-13.401-16.648-23.952-36.456-29.991-55.518zm196.712 47.002c0 9.329-5.156 18.921-12.589 25.076a153.697 153.697 0 0 0 1.979-24.595c0-4.467-.061-10.822-.511-17.522a14.671 14.671 0 0 1 5.656 3.19c3.525 3.191 5.465 8.11 5.465 13.851zM194.265 74.43c53.191 0 96.465 40.824 96.465 91.005 0 5.868-.675 12.114-1.955 18.572-26.312-16.182-59.45-25.009-94.51-25.009-35.053 0-68.19 8.831-94.504 25.022-1.283-6.463-1.961-12.714-1.961-18.585 0-50.18 43.273-91.005 96.465-91.005zM88.406 245.221c0-5.669 1.894-10.547 5.334-13.737a14.644 14.644 0 0 1 5.493-3.212c-.22 6.571-.219 12.403-.217 16.52v.91c0 8.305.672 16.534 1.978 24.594-7.432-6.156-12.588-15.747-12.588-25.075zm24.634 4.346a183.817 183.817 0 0 0 13.804 18.029 6.974 6.974 0 0 0 9.307 1.101c16.87-12.017 36.965-18.37 58.114-18.37 21.167 0 41.272 6.352 58.142 18.37a6.952 6.952 0 0 0 4.042 1.293c1.956 0 3.893-.82 5.264-2.395a183.657 183.657 0 0 0 13.804-18.035c-.776 28.293-10.04 55.348-26.325 76.556-15.786 20.556-35.806 32.346-54.927 32.346-19.119 0-39.134-11.789-54.912-32.345-16.276-21.203-25.536-48.257-26.313-76.55zM265.068 448.86H123.489v-79.527l8.744-4.917c5.313 29.488 31.135 51.935 62.116 51.935 30.961 0 56.771-22.398 62.127-51.837 2.859 1.604 5.723 3.216 8.592 4.829zm190.163-264.122a6.976 6.976 0 0 0-10.135 6.217v28.378c0 10.288-8.371 18.659-18.659 18.659-10.289 0-18.66-8.371-18.66-18.659v-28.378a6.974 6.974 0 0 0-10.135-6.217c-21.496 10.93-34.85 32.685-34.85 56.776 0 20.073 9.399 38.791 25.322 50.796v180.867c0 21.132 17.191 38.323 38.323 38.323 21.147 0 38.35-17.191 38.35-38.323V292.306a63.535 63.535 0 0 0 25.294-50.792c0-24.09-13.354-45.845-34.85-56.776zm-1.284 98.165a6.973 6.973 0 0 0-3.108 5.804v184.469c0 13.44-10.947 24.375-24.402 24.375-13.44 0-24.375-10.934-24.375-24.375V288.708a6.973 6.973 0 0 0-3.113-5.807c-13.906-9.246-22.209-24.718-22.209-41.386 0-14.666 6.339-28.224 17.089-37.534v15.353c0 17.98 14.628 32.607 32.608 32.607s32.607-14.628 32.607-32.607V203.98c10.75 9.311 17.089 22.869 17.089 37.534 0 16.664-8.294 32.136-22.186 41.389zm35.762-176.515-14.38-11.425c.128-1.89.181-3.779.158-5.659l14.956-10.684a6.973 6.973 0 0 0 2.457-8.174l-9.676-25.208a6.978 6.978 0 0 0-7.285-4.432l-18.302 2.044a70.901 70.901 0 0 0-3.867-4.084l3.028-18.145a6.973 6.973 0 0 0-4.046-7.521L428.053 2.121a6.973 6.973 0 0 0-8.29 2.03l-11.438 14.374a72.825 72.825 0 0 0-5.649-.148L391.992 3.421a6.97 6.97 0 0 0-8.174-2.457l-25.209 9.677a6.974 6.974 0 0 0-4.432 7.286l2.044 18.277a72.116 72.116 0 0 0-4.078 3.868l-18.16-3.007a6.975 6.975 0 0 0-7.511 4.045l-10.977 24.671a6.972 6.972 0 0 0 2.024 8.288l14.368 11.457a70.624 70.624 0 0 0-.141 5.644l-14.957 10.707a6.974 6.974 0 0 0-2.451 8.17l9.676 25.209a6.986 6.986 0 0 0 7.295 4.431l18.263-2.065a73.16 73.16 0 0 0 3.875 4.088l-3.009 18.142a6.974 6.974 0 0 0 4.039 7.51l24.672 11.006a6.972 6.972 0 0 0 8.298-2.025l11.457-14.391c1.85.122 3.728.174 5.621.15l10.693 14.97a6.973 6.973 0 0 0 8.171 2.458l25.237-9.676a6.974 6.974 0 0 0 4.434-7.296l-2.067-18.276a73.098 73.098 0 0 0 4.096-3.884l18.129 3.029a6.975 6.975 0 0 0 7.52-4.04l11.006-24.7a6.981 6.981 0 0 0-2.035-8.299zm-19.518 22.392-16.52-2.76a6.972 6.972 0 0 0-6.404 2.294 59.061 59.061 0 0 1-7.944 7.538 6.975 6.975 0 0 0-2.615 6.263l1.883 16.649-15.161 5.812-9.738-13.633a6.975 6.975 0 0 0-6.113-2.906c-3.743.237-7.421.135-10.926-.3a6.993 6.993 0 0 0-6.315 2.578l-10.442 13.117-14.819-6.611 2.741-16.526a6.975 6.975 0 0 0-2.271-6.375c-2.812-2.478-5.34-5.147-7.51-7.935a6.973 6.973 0 0 0-6.286-2.645l-16.651 1.883-5.81-15.139 13.639-9.764a6.977 6.977 0 0 0 2.898-6.157 56.494 56.494 0 0 1 .275-10.878 6.974 6.974 0 0 0-2.573-6.311L330.43 66.526l6.594-14.819 16.551 2.74a6.973 6.973 0 0 0 6.397-2.298 58.237 58.237 0 0 1 7.907-7.501 6.975 6.975 0 0 0 2.622-6.259l-1.863-16.656 15.141-5.812 9.736 13.631a7.004 7.004 0 0 0 6.161 2.904c3.557-.251 7.241-.155 10.951.281a6.965 6.965 0 0 0 6.27-2.584l10.42-13.093 14.833 6.593-2.76 16.542a6.974 6.974 0 0 0 2.32 6.426c2.646 2.286 5.162 4.939 7.478 7.886a6.962 6.962 0 0 0 6.258 2.623l16.686-1.864 5.811 15.141-13.631 9.737a6.974 6.974 0 0 0-2.904 6.163c.251 3.585.15 7.254-.303 10.903a6.974 6.974 0 0 0 2.583 6.319l13.112 10.417zm-51.269-72.871c-9.164-4.093-19.375-4.369-28.752-.778-9.385 3.597-16.804 10.634-20.885 19.807-4.097 9.166-4.375 19.378-.782 28.755 3.597 9.386 10.634 16.805 19.817 20.892a37.402 37.402 0 0 0 15.247 3.251c14.403-.001 28.171-8.314 34.392-22.291 8.429-18.943-.11-41.21-19.037-49.636zm6.292 43.965c-5.299 11.905-19.305 17.275-31.224 11.969-5.775-2.57-10.2-7.236-12.463-13.139-2.258-5.894-2.084-12.313.495-18.084 2.57-5.775 7.235-10.2 13.138-12.463a23.601 23.601 0 0 1 8.457-1.576c3.273 0 6.54.69 9.619 2.066l.009.004c11.904 5.298 17.274 19.305 11.969 31.223zm8.197 261.037v57.519c0 3.852-3.122 6.974-6.974 6.974s-6.974-3.122-6.974-6.974v-57.519c0-3.852 3.122-6.974 6.974-6.974s6.974 3.122 6.974 6.974z" fill="#36454f" opacity="1" data-original="#000000" class=""></path></g></svg>