<svg xmlns="http://www.w3.org/2000/svg" version="1.1" xmlns:xlink="http://www.w3.org/1999/xlink" width="512" height="512" x="0" y="0" viewBox="0 0 64 64" style="enable-background:new 0 0 512 512" xml:space="preserve" class=""><g><g data-name="Electric Plug-ev-electric car-vehicle-plug"><path d="M56.41 14.58a4.935 4.935 0 0 0-.37-6.62l-2.83-2.83a1.014 1.014 0 0 0-1.41 0l-.71.71-2.83-2.83-1.41 1.41 2.83 2.83-1.42 1.42-2.82-2.83-1.42 1.41 2.83 2.83-.71.71a.967.967 0 0 0-.29.7.99.99 0 0 0 .29.71l2.83 2.83a4.936 4.936 0 0 0 5.9.84A27.7 27.7 0 0 1 60 32a28.025 28.025 0 0 1-38.62 25.92l-.76 1.85A30.025 30.025 0 0 0 62 32a29.691 29.691 0 0 0-5.59-17.42z" fill="#36454f" opacity="1" data-original="#000000" class=""></path><path d="M13 32a19 19 0 1 0 19-19 19.017 19.017 0 0 0-19 19zm20-10v7h5a1 1 0 0 1 .89 1.45l-6 12A1 1 0 0 1 32 43a.908.908 0 0 1-.23-.03A1 1 0 0 1 31 42v-7h-5a1 1 0 0 1-.89-1.45l6-12A1 1 0 0 1 33 22z" fill="#36454f" opacity="1" data-original="#000000" class=""></path><path d="M17.86 53.21a.967.967 0 0 0 .29-.7.99.99 0 0 0-.29-.71l-2.83-2.83a4.936 4.936 0 0 0-5.9-.84A27.7 27.7 0 0 1 4 32 28.025 28.025 0 0 1 42.62 6.08l.76-1.85A30.025 30.025 0 0 0 2 32a29.691 29.691 0 0 0 5.59 17.42 4.935 4.935 0 0 0 .37 6.62l2.83 2.83a1.014 1.014 0 0 0 1.41 0l.71-.71 2.83 2.83 1.41-1.41-2.83-2.83 1.42-1.42 2.82 2.83 1.42-1.41-2.83-2.83z" fill="#36454f" opacity="1" data-original="#000000" class=""></path></g></g></svg>