<svg xmlns="http://www.w3.org/2000/svg" version="1.1" xmlns:xlink="http://www.w3.org/1999/xlink" width="512" height="512" x="0" y="0" viewBox="0 0 32 32" style="enable-background:new 0 0 512 512" xml:space="preserve" class=""><g><g fill="#333" fill-rule="evenodd" clip-rule="evenodd"><path d="M2 6a2 2 0 0 1 2-2h24a2 2 0 0 1 2 2v17h-3v1h4a1 1 0 0 1 1 1v1a3 3 0 0 1-3 3H3a3 3 0 0 1-3-3v-1a1 1 0 0 1 1-1h4v-1H2zm.25 19a.25.25 0 1 0 0 .5h27.5a.25.25 0 1 0 0-.5zM22 24H10v-1h12zM4 6h24v15H4z" fill="#36454f" opacity="1" data-original="#333333"></path><path d="M19 9h-6l-1 1H8.71c-.5 0-.944.413-1.102 1.026l-1.548 6C5.81 17.997 6.37 19 7.162 19h17.676c.793 0 1.352-1.003 1.101-1.974l-1.547-6C24.233 10.413 23.79 10 23.29 10H20zm-8 3.5a.5.5 0 1 1-1 0 .5.5 0 0 1 1 0zm-.5 4.5a.5.5 0 1 0 0-1 .5.5 0 0 0 0 1zm2.5-4.5a.5.5 0 1 1-1 0 .5.5 0 0 1 1 0zm-.5 4.5a.5.5 0 1 0 0-1 .5.5 0 0 0 0 1zm2.5-4.5a.5.5 0 1 1-1 0 .5.5 0 0 1 1 0zm-.5 4.5a.5.5 0 1 0 0-1 .5.5 0 0 0 0 1zm3.5-4.5a.5.5 0 1 1-1 0 .5.5 0 0 1 1 0zm-.5 4.5a.5.5 0 1 0 0-1 .5.5 0 0 0 0 1zm2.5-4.5a.5.5 0 1 1-1 0 .5.5 0 0 1 1 0zm-.5 4.5a.5.5 0 1 0 0-1 .5.5 0 0 0 0 1zm2.5-4.5a.5.5 0 1 1-1 0 .5.5 0 0 1 1 0zm-.5 4.5a.5.5 0 1 0 0-1 .5.5 0 0 0 0 1zM9 14.5a.25.25 0 0 1 .25-.25h13.5a.25.25 0 1 1 0 .5H9.25A.25.25 0 0 1 9 14.5z" fill="#36454f" opacity="1" data-original="#333333"></path></g></g></svg>