<svg xmlns="http://www.w3.org/2000/svg" version="1.1" xmlns:xlink="http://www.w3.org/1999/xlink" width="512" height="512" x="0" y="0" viewBox="0 0 500 500" style="enable-background:new 0 0 512 512" xml:space="preserve" class=""><g><path fill-rule="evenodd" d="m451.784 309.051-.735-1.137c-5.39-6.346-13.721-3.964-17.151-2.644l-115.643 44.562c-7.35 2.823-15.681 4.584-25.971 5.464-5.779 11.478-19.427 17.142-32.341 14.357-13.432-2.896-32.661-7.758-44.347-8.901-12.299-1.203-25.609 2.274-38.221 6.872-3.43 1.235-7.35-.441-8.575-3.876a6.712 6.712 0 0 1 3.92-8.538c14.349-5.405 29.85-8.884 44.101-7.58 9.8.882 22.786 3.876 34.056 6.52 4.41.965 8.33 1.847 11.76 2.555 13.431 2.837 23.939-8.86 17.641-20.789-1.715-3.521-4.9-6.076-8.575-7.13l-69.827-21.056c-17.641-5.368-31.116 1.409-46.797 9.256-8.33 4.133-17.15 8.536-27.196 11.263-8.33 2.298-16.906 4.413-25.481 6.346v86.319c33.321-.355 63.702 0 93.348 4.229 22.232 3.201 45.849 11.585 67.377 9.869 26.216-2.117 54.392-18.329 80.852-35.499l89.918-58.216c6.167-3.981 11.216-9.486 16.906-14.806 4.901-4.578 5.391-12.33.981-17.44zM89.173 324.91c0-2.641-2.205-4.844-4.655-4.844H49.972c-2.45 0-4.655 2.203-4.655 4.844v114.406c0 2.641 2.205 4.854 4.655 4.854h34.546c2.45 0 4.655-2.212 4.655-4.854zm116.623-29.859c-13.23-3.964-24.501-2.729-34.791.524-12.25-17.082-18.866-37.258-18.866-58.486 0-55.394 45.081-100.404 100.453-100.404s100.453 45.01 100.453 100.404c0 40.436-24.256 76.815-61.007 92.395-3.675-6.517-9.555-11.273-16.66-13.38zm-90.162-19.287c-.49-2.2-2.205-3.876-4.165-4.584l-36.506-11.8c-2.205-.708-3.675-2.555-3.675-4.844v-34.874c0-2.298 1.47-4.143 3.675-4.851l36.506-11.888c1.96-.622 3.675-2.384 4.165-4.498 3.185-10.653 7.35-21.046 12.74-30.827 1.225-1.933 1.225-4.221.245-6.25l-17.395-34.176c-.98-2.019-.735-4.317.98-5.895l24.746-24.665c1.47-1.588 3.675-1.943 5.88-.965l34.056 17.437c1.96.968 4.41.968 6.37-.086 9.8-5.552 20.091-9.869 30.871-12.863 1.96-.613 3.675-2.203 4.41-4.317l11.76-36.464c.735-2.114 2.695-3.521 4.9-3.521h34.791c2.45 0 4.165 1.406 4.9 3.521l11.76 36.464c.735 2.114 2.45 3.705 4.655 4.317 10.78 3.082 21.071 7.311 30.871 12.863 1.715 1.053 4.165 1.053 6.125.086L362.6 95.647c1.96-1.063 4.165-.622 5.88.965l24.746 24.665c1.47 1.578 1.96 3.876.735 5.895l-17.396 34.176c-.98 2.029-.735 4.317.245 6.25 5.39 9.781 9.8 20.174 12.741 30.827.49 2.114 2.205 3.876 4.41 4.498l36.261 11.888c2.205.708 3.675 2.553 3.675 4.851v34.874c0 2.288-1.47 4.135-3.675 4.844l-36.261 11.8c-2.205.708-3.92 2.384-4.41 4.489-2.94 10.749-7.35 21.142-12.741 30.922-.968 1.831-1.32 5.066 0 6.52l-63.212 24.395c-4.655 1.759-9.8 2.994-15.68 3.876 41.161-17.878 68.357-58.841 68.357-104.292 0-62.705-50.961-113.612-113.683-113.612S138.908 174.386 138.908 237.09c0 22.999 6.86 44.753 19.601 63.511-3.185 1.495-6.37 2.997-9.31 4.489-6.86 3.523-13.965 7.054-21.316 9.428 1.195-2.726 2.333-4.81.49-7.926-5.389-9.782-9.554-20.175-12.739-30.828zm344.235 60.333c-.98 1.054-2.205 2.203-3.43 3.256-4.655 4.584-9.555 9.34-15.19 13.034l-89.918 58.219c-29.725 19.233-62.626 37.871-94.328 37.871-21.698 0-42.094-7.138-63.212-10.3-28.666-4.143-58.557-4.4-91.388-4.048v5.187c0 9.955-8.085 18.059-17.885 18.059H49.972c-9.801 0-17.886-8.105-17.886-18.059V324.91c0-9.952 8.085-18.059 17.886-18.059h34.546c8.575 0 15.68 6.171 17.64 14.269 2.695-.708 5.635-1.32 8.33-2.029l4.655-9.158c-4.41-8.72-8.33-17.878-11.27-27.211l-33.076-10.746c-7.595-2.556-12.495-9.342-12.495-17.44v-34.874c0-8.019 4.9-14.977 12.495-17.447l33.076-10.739c2.94-9.428 6.86-18.5 11.27-27.218l-15.68-31.096c-3.675-7.044-2.205-15.59 3.43-21.227l24.501-24.663c5.88-5.723 14.21-7.044 21.316-3.34l31.116 15.761c8.82-4.584 17.885-8.365 27.196-11.273l10.78-33.115c2.45-7.58 9.31-12.682 17.396-12.682h34.791c8.085 0 14.946 5.101 17.396 12.682L298.41 88.42a155.812 155.812 0 0 1 26.951 11.273l31.116-15.761c7.35-3.705 15.68-2.384 21.316 3.34l24.746 24.663c5.635 5.637 6.86 14.183 3.185 21.227l-15.68 31.096c4.655 8.717 8.33 17.79 11.27 27.218l33.076 10.739c7.595 2.47 12.741 9.428 12.741 17.447v34.874c0 7.926-5.145 14.97-12.741 17.44l-33.076 10.746c-2.695 8.538-6.125 16.903-10.045 24.836L429 292.933c12.74-4.841 24.746-2.374 32.096 6.606l.98 1.061c8.573 10.567 7.593 26.157-2.207 35.497zm-238.147-87.196 20.581 20.431c2.45 2.555 6.615 2.555 9.31 0l62.477-62.362v12.863c0 3.609 2.695 6.605 6.37 6.605s6.615-2.996 6.615-6.605v-28.798c0-1.536-.745-3.704-1.715-4.765-1.49-1.629-4.9-2.04-4.9-1.847h-28.666c-3.675 0-6.615 2.911-6.615 6.613 0 3.609 2.94 6.605 6.615 6.605h12.74l-57.577 57.692-20.581-20.444c-2.695-2.641-6.615-2.641-9.31 0L178.6 273.208c-2.45 2.555-2.45 6.787 0 9.332 2.68 2.505 6.663 2.651 9.31 0z" clip-rule="evenodd" fill="#ffffff" opacity="1" data-original="#000000"></path></g></svg>