<svg xmlns="http://www.w3.org/2000/svg" version="1.1" xmlns:xlink="http://www.w3.org/1999/xlink" width="512" height="512" x="0" y="0" viewBox="0 0 64 64" style="enable-background:new 0 0 512 512" xml:space="preserve" class=""><g><path d="m63.707 50.979-13.8-13.8a1.989 1.989 0 0 1 .215-.147l3.678-1.957a4.074 4.074 0 0 0 1.757-5.41l-1.832-3.747a2.078 2.078 0 0 1 0-1.836l1.832-3.747a4.074 4.074 0 0 0-1.757-5.41l-3.682-1.955a2.075 2.075 0 0 1-1.078-1.485l-.721-4.108a4.074 4.074 0 0 0-4.6-3.344l-4.13.585a2.1 2.1 0 0 1-1.746-.567l-3-2.9a4.073 4.073 0 0 0-5.688 0l-3 2.9a2.1 2.1 0 0 1-1.746.567l-4.131-.585a4.076 4.076 0 0 0-4.6 3.344l-.721 4.108a2.073 2.073 0 0 1-1.079 1.485L10.2 14.925a4.074 4.074 0 0 0-1.757 5.41l1.832 3.747a2.078 2.078 0 0 1 0 1.836l-1.836 3.747a4.074 4.074 0 0 0 1.757 5.41l3.686 1.955a2.079 2.079 0 0 1 .214.147l-13.8 13.8a1 1 0 0 0 .482 1.682l8.583 1.981 1.981 8.583a1 1 0 0 0 1.682.482l15.483-15.484.649.629a4.074 4.074 0 0 0 5.688 0l.649-.629 15.486 15.486a1 1 0 0 0 1.682-.482l1.981-8.583 8.583-1.981a1 1 0 0 0 .482-1.682zM12.882 61.017l-1.715-7.434a1 1 0 0 0-.75-.75l-7.434-1.715 12.071-12.071.627 3.576a4.078 4.078 0 0 0 4.6 3.344l4.13-.585a2.106 2.106 0 0 1 1.746.567l.911.881zm17.665-13.605-1.345-1.3-1.654-1.6a4.065 4.065 0 0 0-2.835-1.152 4.237 4.237 0 0 0-.581.041L20 43.986a2.078 2.078 0 0 1-2.351-1.709l-.721-4.108a4.078 4.078 0 0 0-.5-1.322 1.022 1.022 0 0 0-.079-.14 4.05 4.05 0 0 0-1.528-1.444l-3.685-1.955a2.081 2.081 0 0 1-.9-2.764l1.832-3.744a4.074 4.074 0 0 0 0-3.594l-1.832-3.747a2.081 2.081 0 0 1 .9-2.764l3.684-1.955a4.062 4.062 0 0 0 2.112-2.906l.721-4.108A2.074 2.074 0 0 1 20 6.014l4.131.585a4.07 4.07 0 0 0 3.416-1.111l3-2.9a2.08 2.08 0 0 1 2.906 0l3 2.9A4.069 4.069 0 0 0 39.868 6.6L44 6.014a2.077 2.077 0 0 1 2.351 1.709l.721 4.108a4.064 4.064 0 0 0 2.111 2.906l3.685 1.955a2.081 2.081 0 0 1 .9 2.764L51.932 23.2a4.074 4.074 0 0 0 0 3.594l1.832 3.747a2.081 2.081 0 0 1-.9 2.764L49.18 35.26a4.062 4.062 0 0 0-2.112 2.906l-.721 4.108A2.079 2.079 0 0 1 44 43.986l-4.133-.586a4.071 4.071 0 0 0-3.416 1.111l-3 2.9a2.08 2.08 0 0 1-2.904.001zm23.036 5.421a1 1 0 0 0-.75.75l-1.715 7.434L36.931 46.83l.91-.881a2.11 2.11 0 0 1 1.746-.567l4.131.585a4.077 4.077 0 0 0 4.6-3.344l.627-3.576 12.072 12.071z" fill="#ffffff" opacity="1" data-original="#000000"></path><path d="M47 25a14.991 14.991 0 0 0-3.632-9.785 1 1 0 1 0-1.514 1.3 12.985 12.985 0 1 1-2.624-2.326 1 1 0 1 0 1.114-1.66A15 15 0 1 0 47 25z" fill="#ffffff" opacity="1" data-original="#000000"></path><path d="m37.775 20.312-7.792 8.206-3.732-4.252a1 1 0 1 0-1.5 1.318l4.449 5.075a1 1 0 0 0 .732.341h.02a1 1 0 0 0 .725-.312l8.545-9a1 1 0 1 0-1.45-1.376z" fill="#ffffff" opacity="1" data-original="#000000"></path></g></svg>