<svg xmlns="http://www.w3.org/2000/svg" version="1.1" xmlns:xlink="http://www.w3.org/1999/xlink" width="512" height="512" x="0" y="0" viewBox="0 0 512.026 512.026" style="enable-background:new 0 0 512 512" xml:space="preserve" class=""><g><path fill="#d70006" d="M256.013 182.026c-90.967 0-165 74.019-165 165s74.033 165 165 165 165-74.019 165-165-74.033-165-165-165zm0 30c63.922 0 117.323 44.764 131.223 104.515-33.677-1.88-50.771-8.859-67.355-15.643-16.67-6.812-33.896-13.872-63.867-13.872s-47.197 7.061-63.867 13.872c-16.584 6.784-33.679 13.762-67.355 15.643 13.898-59.751 67.299-104.515 131.221-104.515zm-135 135h15c34.189 0 67.617 13.813 91.699 37.91 8.584 8.584 13.301 19.937 13.301 31.992v63.582c-67.315-7.573-120-64.177-120-133.484zm150 133.484v-63.582c0-12.056 4.717-23.408 13.301-31.992 24.082-24.097 57.51-37.91 91.699-37.91h15c0 69.307-52.685 125.911-120 133.484z" opacity="1" data-original="#406c80" class=""></path><path fill="#635f5f" d="m309.304 148.444-53.291-26.646-53.291 26.646c-5.801 2.871-12.744 1.758-17.314-2.813s-5.713-11.543-2.813-17.314l60-120c5.098-10.166 21.738-10.166 26.836 0l60 120c2.9 5.771 1.758 12.744-2.813 17.314-4.583 4.608-11.594 5.673-17.314 2.813z" opacity="1" data-original="#afe645" class=""></path><path fill="#4f4f4f" d="M9.447 329.957c-7.705-3.076-11.426-11.807-8.35-19.497l121-301c3.076-7.69 11.836-11.47 19.482-8.364 7.705 3.076 11.426 11.807 8.35 19.497l-121 301c-3.1 7.768-11.908 11.418-19.482 8.364z" opacity="1" data-original="#e1e6f0" class=""></path><path fill="#4d4d4d" d="m483.097 321.592-121-301c-3.076-7.69.645-16.421 8.35-19.497 7.646-3.12 16.406.659 19.482 8.364l121 301c3.076 7.69-.645 16.421-8.35 19.497-7.569 3.053-16.38-.588-19.482-8.364z" opacity="1" data-original="#cfd7e6" class=""></path><path fill="#4d4d4d" d="M309.304 148.444c5.72 2.86 12.731 1.794 17.314-2.813 4.57-4.57 5.713-11.543 2.813-17.314l-60-120c-2.549-5.083-7.983-7.625-13.418-7.625v121.106z" opacity="1" data-original="#7ccc29" class=""></path><path fill="#bc0005" d="M387.236 316.541c-33.677-1.88-50.771-8.859-67.355-15.643-16.67-6.812-33.896-13.872-63.867-13.872v225c90.967 0 165-74.019 165-165s-74.033-165-165-165v30c63.921 0 117.322 44.764 131.222 104.515zM271.013 480.51v-63.582c0-12.056 4.717-23.408 13.301-31.992 24.082-24.097 57.51-37.91 91.699-37.91h15c0 69.307-52.685 125.911-120 133.484z" opacity="1" data-original="#344e66" class=""></path></g></svg>