<svg xmlns="http://www.w3.org/2000/svg" version="1.1" xmlns:xlink="http://www.w3.org/1999/xlink" width="512" height="512" x="0" y="0" viewBox="0 0 512 512" style="enable-background:new 0 0 512 512" xml:space="preserve" class=""><g><path d="M469.409 74.122c-4.407-4.193-10.18-6.332-16.255-6.036-27.786 1.373-56.551-1.859-85.502-9.617-37.252-9.982-71.1-26.618-97.884-48.11-8.106-6.504-19.429-6.504-27.536 0-26.784 21.492-60.631 38.127-97.883 48.109-28.951 7.757-57.72 10.993-85.502 9.617-6.084-.298-11.849 1.843-16.256 6.037-4.406 4.194-6.833 9.853-6.833 15.936v152.277c0 128.6 91.67 239.608 217.971 263.953a11.967 11.967 0 0 0 4.542 0c126.301-24.345 217.971-135.354 217.971-263.953V90.059c0-6.083-2.426-11.742-6.833-15.937zm-17.167 168.214c0 116.346-82.389 216.881-196.242 239.938C142.147 459.217 59.758 358.682 59.758 242.336V92.152c29.625 1.24 60.161-2.291 90.803-10.5C190.428 70.969 226.848 53.149 256 30.077c29.152 23.073 65.572 40.892 105.439 51.575 30.643 8.21 61.179 11.743 90.803 10.5z" fill="#ffffff" opacity="1" data-original="#000000"></path></g></svg>