<svg xmlns="http://www.w3.org/2000/svg" version="1.1" xmlns:xlink="http://www.w3.org/1999/xlink" width="512" height="512" x="0" y="0" viewBox="0 0 512 512" style="enable-background:new 0 0 512 512" xml:space="preserve" class=""><g><path fill-rule="evenodd" d="M256 16c103.46 0 187.33 83.871 187.33 187.33S359.46 390.66 256 390.66 68.67 306.789 68.67 203.33 152.54 16 256 16zm140.639 334.176c-26.017 24.924-58.645 43.002-94.99 51.339l32.013 74.326 34.563-55.696 64.214 13.151zm-176.511 53.33c-36.709-6.534-70.009-22.918-97.07-46.322l-43.496 93.425 64.571-11.282L177.066 496zm39.042-266.139c-1.1-2.898-5.239-2.898-6.339 0l-16.274 42.864a3.329 3.329 0 0 1-3.005 2.183l-45.795 2.232c-3.115.151-4.39 4.075-1.959 6.029l35.737 28.724a3.33 3.33 0 0 1 1.148 3.532l-12.029 44.244c-.818 3.009 2.519 5.434 5.128 3.726l38.361-25.112a3.326 3.326 0 0 1 3.713 0l38.362 25.112c2.609 1.708 5.947-.717 5.128-3.726l-12.029-44.243a3.327 3.327 0 0 1 1.147-3.532l35.738-28.724c2.43-1.954 1.155-5.877-1.959-6.029l-45.795-2.232a3.33 3.33 0 0 1-3.005-2.183zm14.534-66.487c-10.658-7.978-24.75-7.978-35.408 0-27.747 20.77-21.455 18.479-56.061 20.404-13.292.739-24.088 9.798-27.124 22.76-7.905 33.746-4.557 27.946-29.829 51.666-9.707 9.111-12.154 22.989-6.148 34.87 15.636 30.932 14.473 24.338 10.36 58.752-1.58 13.219 5.467 25.423 17.704 30.664 31.861 13.645 26.731 9.34 45.701 38.348 7.286 11.142 20.529 15.961 33.273 12.11 33.177-10.027 26.481-10.027 59.659 0 12.743 3.851 25.986-.969 33.272-12.11 18.97-29.007 13.841-24.703 45.701-38.348 12.238-5.241 19.284-17.445 17.704-30.664-4.113-34.415-5.276-27.82 10.36-58.752 6.005-11.881 3.558-25.759-6.148-34.87-25.273-23.719-21.924-17.92-29.829-51.666-3.036-12.962-13.832-22.02-27.124-22.76-34.608-1.925-28.316.365-56.063-20.404z" clip-rule="evenodd" fill="#ffffff" opacity="1" data-original="#000000" class=""></path></g></svg>