<svg xmlns="http://www.w3.org/2000/svg" xmlns:xlink="http://www.w3.org/1999/xlink" width="500" zoomAndPan="magnify" viewBox="0 0 375 91.5" height="122" preserveAspectRatio="xMidYMid meet" version="1.2"><defs><clipPath id="0364f153a6"><path d="M 1.019531 23 L 79.546875 23 L 79.546875 86.464844 L 1.019531 86.464844 Z M 1.019531 23 "/></clipPath></defs><g id="375b0d5877"><path style=" stroke:none;fill-rule:nonzero;fill:#4d4d4d;fill-opacity:1;" d="M 51.667969 16.269531 L 48.402344 9.914062 L 54.792969 0 C 51.171875 0.0507812 47.640625 1.851562 45.535156 5.125 C 43.296875 8.59375 43.234375 12.832031 44.976562 16.265625 L 28.234375 50.839844 L 54.4375 22.359375 C 58.285156 22.53125 62.117188 20.722656 64.351562 17.253906 C 66.460938 13.980469 66.644531 10.019531 65.195312 6.703125 L 58.804688 16.617188 L 51.667969 16.269531 "/><g clip-rule="nonzero" clip-path="url(#0364f153a6)"><path style=" stroke:none;fill-rule:nonzero;fill:#d70006;fill-opacity:1;" d="M 79.011719 34.433594 L 69.453125 41.347656 L 62.933594 38.429688 L 62.203125 31.320312 L 71.757812 24.40625 C 68.363281 23.140625 64.421875 23.535156 61.269531 25.816406 C 57.925781 28.238281 56.324219 32.160156 56.699219 35.992188 L 28.535156 62.117188 L 48.183594 52.503906 C 49.226562 57.800781 47.699219 63.5 43.597656 67.601562 C 37.058594 74.140625 26.453125 74.140625 19.910156 67.601562 C 13.371094 61.058594 13.371094 50.453125 19.910156 43.914062 C 23.726562 40.097656 28.925781 38.511719 33.894531 39.148438 L 37.175781 32.375 C 35.75 32.042969 34.296875 31.839844 32.835938 31.773438 L 30.65625 25.046875 C 28.179688 25.136719 25.710938 25.519531 23.308594 26.203125 L 23.3125 33.285156 C 21.652344 33.90625 20.046875 34.710938 18.527344 35.714844 L 12.816406 31.558594 C 12.816406 31.558594 12.8125 31.558594 12.8125 31.558594 C 11.847656 32.316406 10.910156 33.132812 10.019531 34.023438 C 9.128906 34.914062 8.3125 35.851562 7.554688 36.816406 L 11.714844 42.53125 C 10.710938 44.050781 9.902344 45.65625 9.28125 47.316406 L 2.203125 47.3125 L 2.199219 47.3125 C 1.515625 49.714844 1.132812 52.179688 1.042969 54.660156 L 7.773438 56.839844 C 7.851562 58.625 8.136719 60.402344 8.613281 62.136719 L 2.882812 66.296875 C 3.722656 68.605469 4.847656 70.828125 6.257812 72.921875 L 12.988281 70.730469 C 13.542969 71.421875 14.136719 72.09375 14.777344 72.734375 C 15.417969 73.375 16.089844 73.96875 16.78125 74.523438 L 14.589844 81.253906 C 16.683594 82.664062 18.910156 83.789062 21.214844 84.632812 L 25.375 78.898438 C 27.109375 79.375 28.886719 79.660156 30.671875 79.742188 L 32.851562 86.46875 C 35.332031 86.378906 37.796875 85.996094 40.199219 85.3125 L 40.195312 78.230469 C 41.855469 77.609375 43.464844 76.804688 44.980469 75.800781 L 50.695312 79.957031 C 51.664062 79.199219 52.597656 78.382812 53.488281 77.492188 C 54.378906 76.601562 55.195312 75.664062 55.953125 74.699219 C 55.953125 74.699219 55.953125 74.699219 55.953125 74.695312 L 51.796875 68.984375 C 52.800781 67.464844 53.605469 65.859375 54.230469 64.199219 L 61.308594 64.203125 C 61.992188 61.800781 62.378906 59.332031 62.464844 56.855469 L 55.738281 54.675781 C 55.65625 52.890625 55.375 51.113281 54.898438 49.375 L 55.558594 48.898438 L 63.296875 45.109375 C 66.820312 46.667969 71.046875 46.375 74.390625 43.953125 C 77.546875 41.671875 79.15625 38.050781 79.011719 34.433594 "/></g><g style="fill:#4d4d4d;fill-opacity:1;"><g transform="translate(85.167912, 48.069152)"><path style="stroke:none" d="M 27.8125 -7.671875 L 11.203125 -7.671875 L 8.03125 0 L -0.453125 0 L 15.484375 -35.78125 L 23.671875 -35.78125 L 39.671875 0 L 30.984375 0 Z M 25.203125 -13.953125 L 19.53125 -27.65625 L 13.859375 -13.953125 Z M 25.203125 -13.953125 "/></g></g><g style="fill:#4d4d4d;fill-opacity:1;"><g transform="translate(124.322454, 48.069152)"><path style="stroke:none" d="M 31.390625 -27.5 L 31.390625 0 L 23.828125 0 L 23.828125 -3.265625 C 22.765625 -2.078125 21.5 -1.164062 20.03125 -0.53125 C 18.570312 0.09375 16.988281 0.40625 15.28125 0.40625 C 11.664062 0.40625 8.800781 -0.628906 6.6875 -2.703125 C 4.582031 -4.785156 3.53125 -7.875 3.53125 -11.96875 L 3.53125 -27.5 L 11.5 -27.5 L 11.5 -13.140625 C 11.5 -8.710938 13.359375 -6.5 17.078125 -6.5 C 18.984375 -6.5 20.515625 -7.117188 21.671875 -8.359375 C 22.835938 -9.597656 23.421875 -11.445312 23.421875 -13.90625 L 23.421875 -27.5 Z M 31.390625 -27.5 "/></g></g><g style="fill:#4d4d4d;fill-opacity:1;"><g transform="translate(159.438861, 48.069152)"><path style="stroke:none" d="M 21.421875 -1.328125 C 20.640625 -0.742188 19.675781 -0.304688 18.53125 -0.015625 C 17.382812 0.265625 16.179688 0.40625 14.921875 0.40625 C 11.648438 0.40625 9.117188 -0.425781 7.328125 -2.09375 C 5.546875 -3.757812 4.65625 -6.210938 4.65625 -9.453125 L 4.65625 -20.75 L 0.40625 -20.75 L 0.40625 -26.890625 L 4.65625 -26.890625 L 4.65625 -33.59375 L 12.625 -33.59375 L 12.625 -26.890625 L 19.484375 -26.890625 L 19.484375 -20.75 L 12.625 -20.75 L 12.625 -9.5625 C 12.625 -8.40625 12.921875 -7.507812 13.515625 -6.875 C 14.117188 -6.25 14.960938 -5.9375 16.046875 -5.9375 C 17.304688 -5.9375 18.382812 -6.273438 19.28125 -6.953125 Z M 21.421875 -1.328125 "/></g></g><g style="fill:#4d4d4d;fill-opacity:1;"><g transform="translate(181.674142, 48.069152)"><path style="stroke:none" d="M 16.765625 0.40625 C 13.867188 0.40625 11.269531 -0.195312 8.96875 -1.40625 C 6.664062 -2.613281 4.867188 -4.289062 3.578125 -6.4375 C 2.285156 -8.582031 1.640625 -11.019531 1.640625 -13.75 C 1.640625 -16.476562 2.285156 -18.914062 3.578125 -21.0625 C 4.867188 -23.207031 6.664062 -24.882812 8.96875 -26.09375 C 11.269531 -27.3125 13.867188 -27.921875 16.765625 -27.921875 C 19.660156 -27.921875 22.25 -27.3125 24.53125 -26.09375 C 26.820312 -24.882812 28.613281 -23.207031 29.90625 -21.0625 C 31.195312 -18.914062 31.84375 -16.476562 31.84375 -13.75 C 31.84375 -11.019531 31.195312 -8.582031 29.90625 -6.4375 C 28.613281 -4.289062 26.820312 -2.613281 24.53125 -1.40625 C 22.25 -0.195312 19.660156 0.40625 16.765625 0.40625 Z M 16.765625 -6.140625 C 18.816406 -6.140625 20.492188 -6.828125 21.796875 -8.203125 C 23.109375 -9.585938 23.765625 -11.4375 23.765625 -13.75 C 23.765625 -16.070312 23.109375 -17.921875 21.796875 -19.296875 C 20.492188 -20.679688 18.816406 -21.375 16.765625 -21.375 C 14.722656 -21.375 13.035156 -20.679688 11.703125 -19.296875 C 10.378906 -17.921875 9.71875 -16.070312 9.71875 -13.75 C 9.71875 -11.4375 10.378906 -9.585938 11.703125 -8.203125 C 13.035156 -6.828125 14.722656 -6.140625 16.765625 -6.140625 Z M 16.765625 -6.140625 "/></g></g><g style="fill:#d70006;fill-opacity:1;"><g transform="translate(215.156832, 48.069152)"><path style="stroke:none" d="M 37.0625 -35.78125 L 37.0625 0 L 30.265625 0 L 12.421875 -21.734375 L 12.421875 0 L 4.25 0 L 4.25 -35.78125 L 11.09375 -35.78125 L 28.890625 -14.0625 L 28.890625 -35.78125 Z M 37.0625 -35.78125 "/></g></g><g style="fill:#d70006;fill-opacity:1;"><g transform="translate(256.458221, 48.069152)"><path style="stroke:none" d="M 31.953125 -6.640625 L 31.953125 0 L 4.25 0 L 4.25 -35.78125 L 31.28125 -35.78125 L 31.28125 -29.140625 L 12.46875 -29.140625 L 12.46875 -21.375 L 29.09375 -21.375 L 29.09375 -14.921875 L 12.46875 -14.921875 L 12.46875 -6.640625 Z M 31.953125 -6.640625 "/></g></g><g style="fill:#d70006;fill-opacity:1;"><g transform="translate(290.756779, 48.069152)"><path style="stroke:none" d="M 16 0.609375 C 13.175781 0.609375 10.441406 0.226562 7.796875 -0.53125 C 5.148438 -1.300781 3.03125 -2.300781 1.4375 -3.53125 L 4.25 -9.765625 C 5.78125 -8.640625 7.601562 -7.734375 9.71875 -7.046875 C 11.832031 -6.367188 13.941406 -6.03125 16.046875 -6.03125 C 18.398438 -6.03125 20.140625 -6.378906 21.265625 -7.078125 C 22.390625 -7.773438 22.953125 -8.703125 22.953125 -9.859375 C 22.953125 -10.710938 22.617188 -11.421875 21.953125 -11.984375 C 21.296875 -12.546875 20.445312 -13 19.40625 -13.34375 C 18.363281 -13.6875 16.957031 -14.0625 15.1875 -14.46875 C 12.457031 -15.113281 10.222656 -15.757812 8.484375 -16.40625 C 6.742188 -17.050781 5.25 -18.085938 4 -19.515625 C 2.757812 -20.953125 2.140625 -22.863281 2.140625 -25.25 C 2.140625 -27.332031 2.703125 -29.21875 3.828125 -30.90625 C 4.953125 -32.59375 6.648438 -33.929688 8.921875 -34.921875 C 11.191406 -35.910156 13.960938 -36.40625 17.234375 -36.40625 C 19.515625 -36.40625 21.742188 -36.128906 23.921875 -35.578125 C 26.109375 -35.035156 28.019531 -34.253906 29.65625 -33.234375 L 27.09375 -26.9375 C 23.789062 -28.8125 20.484375 -29.75 17.171875 -29.75 C 14.859375 -29.75 13.144531 -29.375 12.03125 -28.625 C 10.925781 -27.875 10.375 -26.890625 10.375 -25.671875 C 10.375 -24.441406 11.015625 -23.523438 12.296875 -22.921875 C 13.578125 -22.328125 15.53125 -21.742188 18.15625 -21.171875 C 20.875 -20.515625 23.101562 -19.863281 24.84375 -19.21875 C 26.582031 -18.570312 28.070312 -17.550781 29.3125 -16.15625 C 30.5625 -14.757812 31.1875 -12.867188 31.1875 -10.484375 C 31.1875 -8.429688 30.613281 -6.5625 29.46875 -4.875 C 28.332031 -3.195312 26.617188 -1.863281 24.328125 -0.875 C 22.046875 0.113281 19.269531 0.609375 16 0.609375 Z M 16 0.609375 "/></g></g><g style="fill:#d70006;fill-opacity:1;"><g transform="translate(323.368526, 48.069152)"><path style="stroke:none" d="M 11.65625 -29.03125 L 0.203125 -29.03125 L 0.203125 -35.78125 L 31.390625 -35.78125 L 31.390625 -29.03125 L 19.9375 -29.03125 L 19.9375 0 L 11.65625 0 Z M 11.65625 -29.03125 "/></g></g><g style="fill:#4d4d4d;fill-opacity:1;"><g transform="translate(82.725877, 83.523942)"><path style="stroke:none" d="M 4.96875 -6.921875 C 6.007812 -5.617188 7.101562 -4.609375 8.25 -3.890625 C 9.394531 -3.179688 10.835938 -2.828125 12.578125 -2.828125 C 13.460938 -2.828125 14.316406 -2.953125 15.140625 -3.203125 C 15.960938 -3.453125 16.632812 -3.816406 17.15625 -4.296875 C 17.675781 -4.785156 17.9375 -5.398438 17.9375 -6.140625 C 17.9375 -7.222656 17.394531 -8.019531 16.3125 -8.53125 C 15.226562 -9.039062 13.710938 -9.445312 11.765625 -9.75 C 9.316406 -10.15625 7.367188 -10.882812 5.921875 -11.9375 C 4.484375 -12.988281 3.765625 -14.53125 3.765625 -16.5625 C 3.765625 -17.90625 4.164062 -19.0625 4.96875 -20.03125 C 5.769531 -21.007812 6.832031 -21.757812 8.15625 -22.28125 C 9.476562 -22.800781 10.925781 -23.0625 12.5 -23.0625 C 14.5 -23.0625 16.226562 -22.710938 17.6875 -22.015625 C 19.144531 -21.328125 20.285156 -20.34375 21.109375 -19.0625 L 18.71875 -16.5625 C 18.019531 -17.5625 17.144531 -18.367188 16.09375 -18.984375 C 15.039062 -19.597656 13.8125 -19.90625 12.40625 -19.90625 C 11 -19.90625 9.8125 -19.628906 8.84375 -19.078125 C 7.882812 -18.523438 7.40625 -17.753906 7.40625 -16.765625 C 7.40625 -15.617188 7.910156 -14.796875 8.921875 -14.296875 C 9.941406 -13.796875 11.300781 -13.40625 13 -13.125 C 14.101562 -12.945312 15.160156 -12.707031 16.171875 -12.40625 C 17.191406 -12.101562 18.109375 -11.707031 18.921875 -11.21875 C 19.734375 -10.738281 20.375 -10.144531 20.84375 -9.4375 C 21.320312 -8.726562 21.5625 -7.867188 21.5625 -6.859375 C 21.5625 -5.398438 21.1875 -4.132812 20.4375 -3.0625 C 19.695312 -2 18.632812 -1.164062 17.25 -0.5625 C 15.863281 0.03125 14.226562 0.328125 12.34375 0.328125 C 10.351562 0.328125 8.546875 -0.015625 6.921875 -0.703125 C 5.296875 -1.398438 3.863281 -2.53125 2.625 -4.09375 Z M 4.96875 -6.921875 "/></g></g><g style="fill:#4d4d4d;fill-opacity:1;"><g transform="translate(107.023315, 83.523942)"><path style="stroke:none" d="M 4.28125 -22.734375 L 20.4375 -22.734375 L 20.4375 -19.359375 L 7.796875 -19.359375 L 7.796875 -13.34375 L 18.640625 -13.34375 L 18.640625 -9.96875 L 7.796875 -9.96875 L 7.796875 -3.375 L 20.4375 -3.375 L 20.4375 0 L 4.28125 0 Z M 4.28125 -22.734375 "/></g></g><g style="fill:#4d4d4d;fill-opacity:1;"><g transform="translate(130.995915, 83.523942)"><path style="stroke:none" d="M 22.640625 -15.59375 C 22.640625 -14.125 22.195312 -12.785156 21.3125 -11.578125 C 20.425781 -10.378906 19.289062 -9.507812 17.90625 -8.96875 L 23.75 0.03125 L 19.421875 0 L 14 -8.484375 L 7.796875 -8.484375 L 7.796875 0 L 4.28125 0 L 4.28125 -22.734375 L 15.390625 -22.734375 C 16.628906 -22.734375 17.800781 -22.4375 18.90625 -21.84375 C 20.007812 -21.25 20.90625 -20.410156 21.59375 -19.328125 C 22.289062 -18.242188 22.640625 -17 22.640625 -15.59375 Z M 14.65625 -19.359375 L 7.796875 -19.359375 L 7.796875 -11.859375 L 15.203125 -11.859375 C 15.960938 -11.859375 16.628906 -12.03125 17.203125 -12.375 C 17.773438 -12.71875 18.21875 -13.175781 18.53125 -13.75 C 18.84375 -14.332031 19 -14.957031 19 -15.625 C 19 -16.363281 18.800781 -17.015625 18.40625 -17.578125 C 18.019531 -18.140625 17.5 -18.578125 16.84375 -18.890625 C 16.1875 -19.203125 15.457031 -19.359375 14.65625 -19.359375 Z M 14.65625 -19.359375 "/></g></g><g style="fill:#4d4d4d;fill-opacity:1;"><g transform="translate(157.664628, 83.523942)"><path style="stroke:none" d="M 24.65625 -22.734375 L 15.046875 0 L 11.296875 0 L 1.65625 -22.734375 L 5.65625 -22.734375 L 11.34375 -9.03125 C 11.664062 -8.25 12.003906 -7.429688 12.359375 -6.578125 C 12.710938 -5.722656 13.039062 -4.882812 13.34375 -4.0625 C 13.65625 -4.882812 13.976562 -5.71875 14.3125 -6.5625 C 14.644531 -7.40625 14.960938 -8.21875 15.265625 -9 L 20.53125 -22.734375 Z M 24.65625 -22.734375 "/></g></g><g style="fill:#4d4d4d;fill-opacity:1;"><g transform="translate(183.976017, 83.523942)"><path style="stroke:none" d="M 16.53125 0 L 3.859375 0 L 3.859375 -3.34375 L 8.453125 -3.34375 L 8.453125 -19.390625 L 3.859375 -19.390625 L 3.859375 -22.734375 L 16.53125 -22.734375 L 16.53125 -19.390625 L 11.953125 -19.390625 L 11.953125 -3.34375 L 16.53125 -3.34375 Z M 16.53125 0 "/></g></g><g style="fill:#4d4d4d;fill-opacity:1;"><g transform="translate(204.37547, 83.523942)"><path style="stroke:none" d="M 23.328125 -3.015625 C 22.804688 -2.492188 22.09375 -1.976562 21.1875 -1.46875 C 20.289062 -0.96875 19.257812 -0.539062 18.09375 -0.1875 C 16.925781 0.15625 15.679688 0.328125 14.359375 0.328125 C 12.710938 0.328125 11.171875 0.0507812 9.734375 -0.5 C 8.304688 -1.050781 7.054688 -1.835938 5.984375 -2.859375 C 4.921875 -3.878906 4.085938 -5.109375 3.484375 -6.546875 C 2.890625 -7.984375 2.59375 -9.59375 2.59375 -11.375 C 2.59375 -13.039062 2.90625 -14.578125 3.53125 -15.984375 C 4.164062 -17.390625 5.039062 -18.613281 6.15625 -19.65625 C 7.269531 -20.695312 8.539062 -21.503906 9.96875 -22.078125 C 11.394531 -22.648438 12.910156 -22.9375 14.515625 -22.9375 C 15.859375 -22.9375 17.117188 -22.742188 18.296875 -22.359375 C 19.484375 -21.984375 20.535156 -21.503906 21.453125 -20.921875 C 22.378906 -20.335938 23.113281 -19.71875 23.65625 -19.0625 L 21.40625 -16.40625 C 20.457031 -17.289062 19.398438 -18.019531 18.234375 -18.59375 C 17.078125 -19.164062 15.796875 -19.453125 14.390625 -19.453125 C 13.003906 -19.453125 11.679688 -19.128906 10.421875 -18.484375 C 9.171875 -17.835938 8.148438 -16.90625 7.359375 -15.6875 C 6.566406 -14.476562 6.171875 -13.039062 6.171875 -11.375 C 6.171875 -9.550781 6.578125 -8.03125 7.390625 -6.8125 C 8.203125 -5.601562 9.257812 -4.691406 10.5625 -4.078125 C 11.875 -3.460938 13.289062 -3.15625 14.8125 -3.15625 C 16.351562 -3.15625 17.6875 -3.453125 18.8125 -4.046875 C 19.9375 -4.640625 20.867188 -5.257812 21.609375 -5.90625 Z M 23.328125 -3.015625 "/></g></g><g style="fill:#4d4d4d;fill-opacity:1;"><g transform="translate(230.362036, 83.523942)"><path style="stroke:none" d="M 4.28125 -22.734375 L 20.4375 -22.734375 L 20.4375 -19.359375 L 7.796875 -19.359375 L 7.796875 -13.34375 L 18.640625 -13.34375 L 18.640625 -9.96875 L 7.796875 -9.96875 L 7.796875 -3.375 L 20.4375 -3.375 L 20.4375 0 L 4.28125 0 Z M 4.28125 -22.734375 "/></g></g><g style="fill:#4d4d4d;fill-opacity:1;"><g transform="translate(254.334636, 83.523942)"><path style="stroke:none" d=""/></g></g><g style="fill:#4d4d4d;fill-opacity:1;"><g transform="translate(266.093552, 83.523942)"><path style="stroke:none" d="M 21.046875 0 L 18.71875 -5.515625 L 7.671875 -5.515625 L 5.296875 0 L 1.6875 0 L 11.40625 -22.734375 L 15.203125 -22.734375 L 24.84375 0 Z M 11.4375 -14.359375 L 9.09375 -8.90625 L 17.28125 -8.90625 L 14.875 -14.484375 C 14.59375 -15.203125 14.3125 -15.929688 14.03125 -16.671875 C 13.75 -17.421875 13.46875 -18.195312 13.1875 -19 C 12.882812 -18.175781 12.59375 -17.375 12.3125 -16.59375 C 12.03125 -15.820312 11.738281 -15.078125 11.4375 -14.359375 Z M 11.4375 -14.359375 "/></g></g><g style="fill:#4d4d4d;fill-opacity:1;"><g transform="translate(292.632333, 83.523942)"><path style="stroke:none" d="M 24.078125 -22.765625 L 24.078125 -9.578125 C 24.078125 -7.691406 23.644531 -6.015625 22.78125 -4.546875 C 21.925781 -3.078125 20.738281 -1.921875 19.21875 -1.078125 C 17.707031 -0.234375 15.96875 0.1875 14 0.1875 C 12.007812 0.1875 10.257812 -0.234375 8.75 -1.078125 C 7.25 -1.921875 6.070312 -3.078125 5.21875 -4.546875 C 4.363281 -6.015625 3.9375 -7.691406 3.9375 -9.578125 L 3.9375 -22.765625 L 7.4375 -22.765625 L 7.4375 -9.8125 C 7.4375 -8.53125 7.734375 -7.390625 8.328125 -6.390625 C 8.921875 -5.398438 9.71875 -4.617188 10.71875 -4.046875 C 11.71875 -3.472656 12.8125 -3.1875 14 -3.1875 C 15.238281 -3.1875 16.363281 -3.472656 17.375 -4.046875 C 18.394531 -4.617188 19.207031 -5.398438 19.8125 -6.390625 C 20.414062 -7.390625 20.71875 -8.53125 20.71875 -9.8125 L 20.71875 -22.765625 Z M 24.078125 -22.765625 "/></g></g><g style="fill:#4d4d4d;fill-opacity:1;"><g transform="translate(320.632851, 83.523942)"><path style="stroke:none" d="M 9.265625 0 L 9.265625 -19.359375 L 1.984375 -19.359375 L 1.984375 -22.734375 L 20.234375 -22.734375 L 20.234375 -19.359375 L 12.765625 -19.359375 L 12.765625 0 Z M 9.265625 0 "/></g></g><g style="fill:#4d4d4d;fill-opacity:1;"><g transform="translate(342.851364, 83.523942)"><path style="stroke:none" d="M 26.96875 -11.375 C 26.96875 -9.726562 26.664062 -8.191406 26.0625 -6.765625 C 25.46875 -5.347656 24.625 -4.109375 23.53125 -3.046875 C 22.4375 -1.992188 21.144531 -1.164062 19.65625 -0.5625 C 18.175781 0.03125 16.550781 0.328125 14.78125 0.328125 C 13 0.328125 11.363281 0.03125 9.875 -0.5625 C 8.382812 -1.164062 7.097656 -1.992188 6.015625 -3.046875 C 4.929688 -4.109375 4.085938 -5.347656 3.484375 -6.765625 C 2.890625 -8.191406 2.59375 -9.726562 2.59375 -11.375 C 2.59375 -13.019531 2.890625 -14.550781 3.484375 -15.96875 C 4.085938 -17.382812 4.929688 -18.625 6.015625 -19.6875 C 7.097656 -20.75 8.382812 -21.578125 9.875 -22.171875 C 11.363281 -22.765625 13 -23.0625 14.78125 -23.0625 C 16.550781 -23.0625 18.175781 -22.765625 19.65625 -22.171875 C 21.144531 -21.578125 22.4375 -20.75 23.53125 -19.6875 C 24.625 -18.625 25.46875 -17.382812 26.0625 -15.96875 C 26.664062 -14.550781 26.96875 -13.019531 26.96875 -11.375 Z M 23.390625 -11.375 C 23.390625 -12.945312 23.019531 -14.351562 22.28125 -15.59375 C 21.550781 -16.84375 20.535156 -17.832031 19.234375 -18.5625 C 17.929688 -19.289062 16.445312 -19.65625 14.78125 -19.65625 C 13.070312 -19.65625 11.570312 -19.289062 10.28125 -18.5625 C 8.988281 -17.832031 7.976562 -16.84375 7.25 -15.59375 C 6.53125 -14.351562 6.171875 -12.945312 6.171875 -11.375 C 6.171875 -9.789062 6.53125 -8.375 7.25 -7.125 C 7.976562 -5.882812 8.988281 -4.898438 10.28125 -4.171875 C 11.570312 -3.453125 13.070312 -3.09375 14.78125 -3.09375 C 16.445312 -3.09375 17.929688 -3.453125 19.234375 -4.171875 C 20.535156 -4.898438 21.550781 -5.890625 22.28125 -7.140625 C 23.019531 -8.398438 23.390625 -9.8125 23.390625 -11.375 Z M 23.390625 -11.375 "/></g></g></g></svg>