<svg xmlns="http://www.w3.org/2000/svg" version="1.1" xmlns:xlink="http://www.w3.org/1999/xlink" width="512" height="512" x="0" y="0" viewBox="0 0 33 33" style="enable-background:new 0 0 512 512" xml:space="preserve" class=""><g><circle cx="15.607" cy="16.5" r="4.293" fill="#4d4d4d" opacity="1" data-original="#414042" class=""></circle><path fill="#4d4d4d" d="M24.277 23.135c-1.178-.486-.829-1.338-.307-2.262.735-1.305 1.252-2.764 1.252-4.373 0-1.607-.517-3.068-1.252-4.373-.522-.924-.871-1.775.307-2.26a357.47 357.47 0 0 0 3.775-1.607c.045-.02.086-.035.13-.053-2.702-4.09-7.306-6.814-12.575-6.814C7.266 1.393.5 8.158.5 16.5c0 8.344 6.766 15.107 15.107 15.107 5.27 0 9.873-2.725 12.575-6.814-.044-.018-.085-.033-.13-.053a373.531 373.531 0 0 0-3.775-1.605zM4.063 12.865a.883.883 0 1 1-1.175-1.318.881.881 0 0 1 1.244.074.877.877 0 0 1-.069 1.244zm15.25-9.156a.882.882 0 1 1 1.174 1.316.882.882 0 0 1-1.174-1.316zm-7.081 3.49a.883.883 0 0 1 1.176 1.316.884.884 0 0 1-1.176-1.316zm-5.803.44a.88.88 0 0 1 1.246.072c.323.363.292.922-.071 1.246s-.922.291-1.246-.07a.882.882 0 0 1 .071-1.248zm-.052 10.992a.881.881 0 1 1 1.176 1.316.884.884 0 0 1-1.248-.072.88.88 0 0 1 .072-1.244zm1.615 7.121a.885.885 0 0 1-1.246-.07.885.885 0 0 1 1.318-1.178.885.885 0 0 1-.072 1.248zm3.91 3.539a.884.884 0 1 1-1.174-1.315.884.884 0 0 1 1.174 1.315zm7.08-3.488a.884.884 0 0 1-1.175-1.318.882.882 0 0 1 1.246.072.879.879 0 0 1-.071 1.246zm-3.375-1.983a7.319 7.319 0 1 1 0-14.638 7.32 7.32 0 1 1 0 14.638zm7.616-16.57a.882.882 0 1 1 1.176 1.316.881.881 0 1 1-1.176-1.316zm1.564 18.111a.882.882 0 1 1-1.176-1.316.882.882 0 1 1 1.176 1.316z" opacity="1" data-original="#414042" class=""></path><path fill="#d70006" d="M30.656 9.389c-.465-.857-1.021-.695-1.682-.41-1.293.561-3.287 1.418-3.775 1.607-.737.285-.412 1.146-.168 1.541a8.29 8.29 0 0 1 1.252 4.373 8.28 8.28 0 0 1-1.252 4.373c-.244.395-.569 1.258.168 1.543.488.188 2.482 1.047 3.775 1.605.66.285 1.217.449 1.682-.41C31.859 21.39 32.5 19.082 32.5 16.5s-.641-4.889-1.844-7.111zm-3.639 11.55-.547-.289c.01-.02.973-1.871.973-4.15 0-2.287-.962-4.131-.972-4.148l.546-.291c.043.082 1.045 2.002 1.045 4.439s-1.002 4.359-1.045 4.439zm3.282.913-.547-.289c.012-.021 1.188-2.279 1.188-5.063 0-2.789-1.176-5.039-1.188-5.061l.547-.291c.051.098 1.259 2.41 1.259 5.352s-1.208 5.256-1.259 5.352z" opacity="1" data-original="#00a79d" class=""></path></g></svg>